# xmcd
#
# Track frame offsets:
#       150
#       12030
#       25362
#       38110
#       51814
#       65117
#       77771
#       88819
#       103266
#       116473
#       130279
#       142702
#       155315
#       167191
#       177502
#       190358
#       203337
#       214263
#       229531
#       242405
#
# Disc length: 3388 seconds
#
# Revision: 0
# Processed by: cddbd v1.4PL0 Copyright (c) Steve Scherf et al.
# Submitted via: WhereIsIt 3.21
#
DISCID=0c0d3a14
DTITLE=J.B. Lenoir - Mojo Boogie - An Essential Colection
DYEAR=1900
DGENRE=
TTITLE0=Let's Roll [Take 2]
TTITLE1=People Are Meddling In Our Affairs
TTITLE2=(I Wanna) Play A Little While
TTITLE3=Louise
TTITLE4=How Much More
TTITLE5=The Mountain
TTITLE6=I Have Married
TTITLE7=I'll Die Tryin'
TTITLE8=The Mojo [Take 4]
TTITLE9=How Can I Leave?
TTITLE10=I Want My Baby [Take 4]
TTITLE11=Slow Down Woman [Take 2]
TTITLE12=I Sing Um The Way I Feel
TTITLE13=I Feel So Good
TTITLE14=Let's Roll [Take 1]
TTITLE15=The Mojo [Take 1]
TTITLE16=I Want My Baby [Take 1]
TTITLE17=Slow Down Woman [Take 1]
TTITLE18=I Sing Um The Way I Feel [Take 18]
TTITLE19=I Feel So Good [Take 21]
EXTD=
EXTT0=
EXTT1=
EXTT2=
EXTT3=
EXTT4=
EXTT5=
EXTT6=
EXTT7=
EXTT8=
EXTT9=
EXTT10=
EXTT11=
EXTT12=
EXTT13=
EXTT14=
EXTT15=
EXTT16=
EXTT17=
EXTT18=
EXTT19=
PLAYORDER=
